<svg xmlns="http://www.w3.org/2000/svg" viewBox="0 0 400 400" width="400" height="400" fill="none" stroke="currentColor" stroke-linecap="round">
<g class="lotus" data-cx="200" data-cy="250" data-scale="1.0">
  <path d="M 200.0 250.0 C 173.0 228.0, 141.5 228.0, 110.0 250.0 C 141.5 272.0, 173.0 272.0, 200.0 250.0 Z" fill="currentColor" fill-opacity="0.06" stroke="currentColor" stroke-width="1.2" stroke-linejoin="round" />
  <path d="M 200.0 250.0 C 181.1 212.5, 146.2 196.2, 100.3 203.5 C 124.2 243.3, 159.1 259.6, 200.0 250.0 Z" fill="currentColor" fill-opacity="0.06" stroke="currentColor" stroke-width="1.2" stroke-linejoin="round" />
  <path d="M 200.0 250.0 C 208.0 203.8, 187.0 167.5, 140.0 146.1 C 135.0 197.5, 156.0 233.8, 200.0 250.0 Z" fill="currentColor" fill-opacity="0.06" stroke="currentColor" stroke-width="1.2" stroke-linejoin="round" />
  <path d="M 200.0 250.0 C 244.0 233.8, 265.0 197.5, 260.0 146.1 C 213.0 167.5, 192.0 203.8, 200.0 250.0 Z" fill="currentColor" fill-opacity="0.06" stroke="currentColor" stroke-width="1.2" stroke-linejoin="round" />
  <path d="M 200.0 250.0 C 240.9 259.6, 275.8 243.3, 299.7 203.5 C 253.8 196.2, 218.9 212.5, 200.0 250.0 Z" fill="currentColor" fill-opacity="0.06" stroke="currentColor" stroke-width="1.2" stroke-linejoin="round" />
  <path d="M 200.0 250.0 C 227.0 272.0, 258.5 272.0, 290.0 250.0 C 258.5 228.0, 227.0 228.0, 200.0 250.0 Z" fill="currentColor" fill-opacity="0.06" stroke="currentColor" stroke-width="1.2" stroke-linejoin="round" />
  <path d="M 200.0 250.0 C 188.1 203.5, 148.3 170.1, 100.4 166.4 C 112.3 213.0, 152.1 246.4, 200.0 250.0 Z" fill="currentColor" fill-opacity="0.10" stroke="currentColor" stroke-width="1.3" stroke-linejoin="round" />
  <path d="M 200.0 250.0 C 212.1 199.8, 191.1 147.9, 147.6 120.2 C 135.5 170.4, 156.5 222.3, 200.0 250.0 Z" fill="currentColor" fill-opacity="0.10" stroke="currentColor" stroke-width="1.3" stroke-linejoin="round" />
  <path d="M 200.0 250.0 C 243.5 222.3, 264.5 170.4, 252.4 120.2 C 208.9 147.9, 187.9 199.8, 200.0 250.0 Z" fill="currentColor" fill-opacity="0.10" stroke="currentColor" stroke-width="1.3" stroke-linejoin="round" />
  <path d="M 200.0 250.0 C 247.9 246.4, 287.7 213.0, 299.6 166.4 C 251.7 170.1, 211.9 203.5, 200.0 250.0 Z" fill="currentColor" fill-opacity="0.10" stroke="currentColor" stroke-width="1.3" stroke-linejoin="round" />
  <path d="M 200.0 250.0 C 206.9 205.6, 195.3 150.8, 170.9 113.1 C 164.0 157.5, 175.6 212.2, 200.0 250.0 Z" fill="currentColor" fill-opacity="0.14" stroke="currentColor" stroke-width="1.4" stroke-linejoin="round" />
  <path d="M 200.0 250.0 C 216.0 205.0, 216.0 145.0, 200.0 100.0 C 184.0 145.0, 184.0 205.0, 200.0 250.0 Z" fill="currentColor" fill-opacity="0.14" stroke="currentColor" stroke-width="1.4" stroke-linejoin="round" />
  <path d="M 200.0 250.0 C 224.4 212.2, 236.0 157.5, 229.1 113.1 C 204.7 150.8, 193.1 205.6, 200.0 250.0 Z" fill="currentColor" fill-opacity="0.14" stroke="currentColor" stroke-width="1.4" stroke-linejoin="round" />
  <g stroke-width="0.6" stroke-opacity="0.4" fill="none">
    <path d="M 200.0 242.0 L 109.4 207.7" stroke="currentColor" />
    <path d="M 200.0 242.0 L 135.0 137.4" stroke="currentColor" />
    <path d="M 200.0 242.0 L 200.0 110.0" stroke="currentColor" />
    <path d="M 200.0 242.0 L 265.0 137.4" stroke="currentColor" />
    <path d="M 200.0 242.0 L 290.6 207.7" stroke="currentColor" />
  </g>
  <path d="M 182.0 252.0 C 182.0 264.0, 218.0 264.0, 218.0 252.0" stroke="currentColor" stroke-width="1.0" fill="none" stroke-opacity="0.7" />
  <circle cx="190.0" cy="258.0" r="1.6" fill="currentColor" fill-opacity="0.55" />
  <circle cx="197.0" cy="260.0" r="1.6" fill="currentColor" fill-opacity="0.55" />
  <circle cx="204.0" cy="260.0" r="1.6" fill="currentColor" fill-opacity="0.55" />
  <circle cx="211.0" cy="258.0" r="1.6" fill="currentColor" fill-opacity="0.55" />
  <circle cx="200.0" cy="262.0" r="1.6" fill="currentColor" fill-opacity="0.55" />
</g>
</svg>
